<svg width="16" height="20" viewBox="0 0 16 20" fill="none" xmlns="http://www.w3.org/2000/svg">
<path d="M7.9998 0.399902C4.02973 0.399902 0.799805 3.42795 0.799805 7.1499C0.799805 8.40743 1.17136 9.63465 1.87456 10.6994L7.58996 19.334C7.69945 19.4994 7.89232 19.5999 8.09976 19.5999C8.10137 19.5999 8.10293 19.5999 8.10453 19.5999C8.31377 19.5984 8.50705 19.4948 8.61453 19.3265L14.1842 10.6082C14.8486 9.56595 15.1998 8.37011 15.1998 7.1499C15.1998 3.42795 11.9699 0.399902 7.9998 0.399902ZM13.1544 10.0306L8.09069 17.9569L2.89448 10.1066C2.30917 9.22043 1.9918 8.19803 1.9918 7.1499C1.9918 4.04828 4.69141 1.5174 7.9998 1.5174C11.3082 1.5174 14.0038 4.04828 14.0038 7.1499C14.0038 8.16694 13.7074 9.1632 13.1544 10.0306Z" fill="#77B82A"/>
<path d="M7.9999 3.7749C6.01486 3.7749 4.3999 5.44033 4.3999 7.4874C4.3999 9.5214 5.98858 11.1999 7.9999 11.1999C10.036 11.1999 11.5999 9.49904 11.5999 7.4874C11.5999 5.44033 9.98494 3.7749 7.9999 3.7749ZM7.9999 9.97065C6.66962 9.97065 5.5919 8.85554 5.5919 7.4874C5.5919 6.12269 6.67654 5.00415 7.9999 5.00415C9.32326 5.00415 10.4039 6.12269 10.4039 7.4874C10.4039 8.83558 9.35126 9.97065 7.9999 9.97065Z" fill="#77B82A"/>
</svg>
