<svg width="32" height="28" viewBox="0 0 32 28" fill="none" xmlns="http://www.w3.org/2000/svg">
<path d="M31.0626 26.3686V16.9936H27.7813V10.8998C27.7813 10.1244 27.1505 9.49352 26.3751 9.49352H23.0938V3.85507L25.2232 3.31126V0L2.38625 5.83214V9.14339L4.51557 8.59958V15.1185H0.937502V26.3685H0V27.3061H25.4376V26.3685H19.3438V19.806H27.7813V17.931H30.1251V26.3685H28.2501V27.3061H32V26.3685H31.0626V26.3686ZM13.2346 5.40539L3.32376 7.93645V6.56026L24.2857 1.20694V2.58313L14.1428 5.17345L14.3748 6.08176L22.1563 4.09451V9.49352H17.4688V16.9935H10.9063V15.1185H5.45314V8.36027L13.4666 6.31376L13.2346 5.40539ZM19.3438 18.8686H9.03127V17.9311H19.3438V18.8686ZM1.875 16.0561H9.96877V16.9936H8.09377V19.8061H9.03127V26.3686H8.09377V20.7436H2.81244V26.3686H1.875V16.0561ZM7.15626 23.5561V24.4936H3.74995V23.5561H7.15626ZM3.74995 22.6186V21.6811H7.15626V22.6186H3.74995ZM7.15626 25.4311V26.3686H3.74995V25.4311H7.15626ZM16.0625 26.3686H12.3125V22.1499H16.0625V26.3686ZM18.4063 26.3686H17V21.2124H11.375V26.3686H9.96871V19.8061H18.4062V26.3686H18.4063ZM26.8438 18.8686H20.2813V16.9936H18.4063V10.4311H26.3751C26.6335 10.4311 26.8438 10.6413 26.8438 10.8998V18.8686Z" fill="white"/>
</svg>
