<svg width="18" height="20" viewBox="0 0 18 20" fill="none" xmlns="http://www.w3.org/2000/svg">
<path d="M15.8697 5.8374H15.4956V5.67694C15.4956 4.95386 15.2472 4.26668 14.796 3.7419L12.6772 1.27736C12.1977 0.71974 11.5231 0.399902 10.8262 0.399902H4.03492C3.19107 0.399902 2.50455 1.15691 2.50455 2.0874V5.8374H2.13046C1.28662 5.8374 0.600098 6.59441 0.600098 7.5249V14.2749C0.600098 15.2054 1.28662 15.9624 2.13046 15.9624H2.50455V17.9124C2.50455 18.8429 3.19107 19.5999 4.03492 19.5999H13.9653C14.8091 19.5999 15.4956 18.8429 15.4956 17.9124V15.9624H15.8697C16.7136 15.9624 17.4001 15.2054 17.4001 14.2749V7.5249C17.4001 6.59441 16.7136 5.8374 15.8697 5.8374ZM3.52479 2.0874C3.52479 1.77724 3.75363 1.5249 4.03492 1.5249H10.8262C11.2443 1.5249 11.6491 1.71679 11.9368 2.0514L14.0556 4.51594C14.3263 4.83079 14.4754 5.2431 14.4754 5.67694V5.8374H3.52479V2.0874ZM14.4754 17.9124C14.4754 18.2226 14.2466 18.4749 13.9653 18.4749H4.03492C3.75363 18.4749 3.52479 18.2226 3.52479 17.9124V15.9624H14.4754V17.9124ZM16.3799 14.2749C16.3799 14.5851 16.151 14.8374 15.8697 14.8374H2.13046C1.84918 14.8374 1.62034 14.5851 1.62034 14.2749V7.5249C1.62034 7.21474 1.84918 6.9624 2.13046 6.9624H15.8697C16.151 6.9624 16.3799 7.21474 16.3799 7.5249V14.2749Z" fill="#FFC50E"/>
</svg>
