<svg width="32" height="29" viewBox="0 0 32 29" fill="none" xmlns="http://www.w3.org/2000/svg">
<path d="M31.9323 8.90191L28.9249 2.97539V0.625003C28.9249 0.279876 28.6452 0 28.2999 0H3.69989C3.35476 0 3.07489 0.279876 3.07489 0.625003V2.9757L0.0676253 8.90191C0.0231876 8.98953 0 9.08647 0 9.18472V10.7223C0 12.5493 1.33151 14.0703 3.07489 14.3684V27.5H2.43532C2.09013 27.5 1.81032 27.7799 1.81032 28.125C1.81032 28.4701 2.09013 28.75 2.43532 28.75H3.69508C3.69664 28.75 3.69826 28.7502 3.69989 28.7502H20.8H25.8H28.3H29.5646C29.9097 28.7502 30.1896 28.4704 30.1896 28.1252C30.1896 27.7801 29.9097 27.5002 29.5646 27.5002H28.9251V14.3684C30.6685 14.0703 32 12.5494 32 10.7223V9.18472C32 9.08647 31.9768 8.98953 31.9323 8.90191ZM4.32489 1.25H27.6749V2.5002H23.3801H18.46H13.5401H8.61991H4.32489V1.25ZM19.6968 9.1216L19.1517 3.7502H22.9171L24.6 9.27772V10.7223C24.6 12.0732 23.501 13.1722 22.15 13.1722C20.7991 13.1722 19.7 12.0732 19.7 10.7223V9.18472C19.7 9.16366 19.6989 9.1426 19.6968 9.1216ZM18.4499 9.21635V10.7223H18.4499C18.4499 12.0732 17.3509 13.1722 16.0001 13.1722C14.6491 13.1722 13.55 12.0732 13.55 10.7223V9.21635L14.1049 3.7502H17.8953L18.4499 9.21635ZM12.8485 3.75026L12.3032 9.12166C12.301 9.1426 12.3 9.16366 12.3 9.18472V10.7223C12.3 12.0732 11.201 13.1722 9.85004 13.1722C8.4991 13.1722 7.40009 12.0732 7.40009 10.7223V9.27779L9.0831 3.75026H12.8485ZM1.25 10.7223V9.33422L4.08364 3.7502H7.77634L6.17715 9.00266C6.15921 9.06166 6.15002 9.12303 6.15002 9.18472V10.7223C6.15002 12.0732 5.05089 13.1722 3.69989 13.1722C2.34901 13.1722 1.25 12.0732 1.25 10.7223ZM25.175 27.5002H21.425V25.6251V23.1251H22.05C22.3952 23.1251 22.675 22.8453 22.675 22.5001C22.675 22.155 22.3952 21.8751 22.05 21.8751H21.425V17.5002H25.175V27.5002ZM27.6749 27.5002H26.4249V16.8752C26.4249 16.5301 26.1451 16.2502 25.7999 16.2502H20.7998H6.19996C5.85471 16.2502 5.57496 16.5301 5.57496 16.8752V25.6251C5.57496 25.9703 5.85471 26.2501 6.19996 26.2501H20.175V27.5002H4.32489V14.3684C5.34327 14.1943 6.22109 13.6035 6.77503 12.7774C7.43953 13.7684 8.56972 14.4222 9.84998 14.4222C11.1302 14.4222 12.2604 13.7684 12.9249 12.7774C13.5895 13.7684 14.7197 14.4222 16 14.4222C17.2801 14.4222 18.4104 13.7684 19.0748 12.7774C19.7394 13.7684 20.8696 14.4222 22.1499 14.4222C23.4302 14.4222 24.5604 13.7684 25.2249 12.7774C25.7788 13.6035 26.6566 14.1943 27.6749 14.3684V27.5002ZM12.9207 17.5002H15.0982L13.9097 18.6884C13.6657 18.9324 13.6657 19.3282 13.9097 19.5723C14.0317 19.6944 14.1917 19.7555 14.3517 19.7555C14.5116 19.7555 14.6715 19.6944 14.7936 19.5724L16.866 17.5002H20.1749V25.0001H6.82496V23.5959L12.9207 17.5002ZM6.82496 21.8281V17.5002H11.1529L6.82496 21.8281ZM30.75 10.7223C30.75 12.0732 29.6509 13.1722 28.3 13.1722C26.9491 13.1722 25.85 12.0732 25.85 10.7223V9.18472C25.85 9.12303 25.8409 9.06166 25.8229 9.00266L24.2237 3.7502H27.9164L30.75 9.33422V10.7223Z" fill="white"/>
</svg>
